<?xml version="1.0" encoding="UTF-8"?>
<svg viewBox="500 0 500 2000" xmlns="http://www.w3.org/2000/svg">
 <path d="m730.94 1839.6c-38.766-190.3-107.12-348.66-189.9-495.44-61.407-108.87-132.54-209.36-198.36-314.94-21.972-35.244-40.934-72.477-62.047-109.05-42.216-73.137-76.444-157.94-74.269-267.93 2.125-107.47 33.208-193.68 78.03-264.17 73.719-115.94 197.2-210.99 362.88-235.97 135.47-20.424 262.48 14.082 352.54 66.748 73.6 43.038 130.6 100.53 173.92 168.28 45.22 70.716 76.359 154.26 78.971 263.23 1.337 55.83-7.805 107.53-20.684 150.42-13.034 43.409-33.996 79.695-52.646 118.45-36.406 75.659-82.049 144.98-127.86 214.35-136.44 206.61-264.5 417.31-320.58 706.03z" fill="#e81e25" fill-rule="evenodd" stroke="#000" stroke-miterlimit="10" stroke-width="37"/>
 <path d="m912.88 651.05a183.33 183.33 0 1 0 -366.67 0 183.33 183.33 0 1 0 366.67 0" fill-rule="evenodd"/>
</svg>
